<svg width="160" height="40" viewBox="0 0 160 40" fill="none" xmlns="http://www.w3.org/2000/svg">
    <path d="M109.957 1.1811L105.318 11.0146L100.862 1.1811H92.796L101.388 17.981V24.3873H109.134V17.981L118.16 1.1811H109.957Z" fill="#FF7D00"/>
    <path d="M9.50582 0.038709C6.74091 -0.09569 2.01085 0.150708 0 0.307507L0.159954 6.17626L2.0794 6.06426V24.3649H9.50582V19.7954C20.3598 19.2802 22.8962 13.613 22.8962 9.62583C22.8962 3.93628 18.1662 0.419506 9.50582 0.038709ZM9.50582 14.0834V6.08666C14.2359 6.31066 15.3784 8.28185 15.3784 9.89463C15.3784 12.2018 13.8017 13.9938 9.50582 14.0834Z" fill="#FF7D00"/>
    <path d="M128.329 18.6754C125.358 18.6754 123.507 17.2866 122.799 14.8898H138.589C138.726 14.1954 138.84 12.829 138.84 11.6194C138.794 6.62426 136.098 0.329907 127.346 0.329907C120.171 0.329907 115.212 5.43707 115.212 12.4482C115.212 19.4818 119.988 24.7009 128.032 24.7009C131.391 24.7009 134.293 23.9841 136.738 22.3713L134.064 16.9954C132.305 18.0706 130.477 18.6754 128.329 18.6754ZM127.346 6.01946C129.745 6.01946 131.528 7.43065 131.71 9.96183H122.73C123.301 7.60985 124.81 6.01946 127.346 6.01946Z" fill="#FF7D00"/>
    <path d="M57.6748 0.262708C54.9327 0.128309 50.2483 0.397107 48.2603 0.531506L48.4203 6.35546L50.3169 6.24346V24.3649H57.6748V19.8402C68.4145 19.3474 70.9281 13.725 70.9281 9.76023C70.9509 4.13788 66.2666 0.665905 57.6748 0.262708ZM57.6976 14.173V6.26586C62.382 6.48986 63.5016 8.43864 63.5016 10.0514C63.5016 12.3138 61.9478 14.1058 57.6976 14.173Z" fill="#FF7D00"/>
    <path d="M147.592 18.9218C145.969 18.9218 143.616 18.2722 141.902 17.197L139.388 22.2145C141.765 23.8945 144.644 24.5889 147.592 24.5889C152.162 24.5889 157.052 22.6401 157.052 17.4434C157.052 13.5234 154.492 11.6418 151.773 10.589C150.448 10.0738 148.848 9.49144 147.82 9.02104C146.815 8.57304 146.449 8.12505 146.449 7.43065C146.449 6.51226 147.409 6.01946 148.62 6.01946C150.494 6.01946 151.956 6.87066 153.259 8.23705L157.372 4.04828C155.612 1.7187 152.573 0.262707 148.711 0.262707C143.479 0.262707 139.388 2.74909 139.388 7.63225C139.388 11.485 141.285 13.3442 144.964 14.9122C146.015 15.3602 147.409 15.741 148.46 16.189C149.374 16.5698 149.945 16.973 149.945 17.7122C149.968 18.3618 149.351 18.9218 147.592 18.9218Z" fill="#FF7D00"/>
    <path d="M36.0353 0.464306C29.2258 0.464306 23.5361 5.43707 23.5361 12.4706C23.5361 19.5042 29.203 24.4769 36.0353 24.4769C42.8448 24.4769 48.5345 19.5042 48.5345 12.4706C48.5345 5.43707 42.8448 0.464306 36.0353 0.464306ZM36.081 18.0258C32.7677 18.0258 30.6654 15.517 30.6654 12.4258C30.6654 9.31224 32.7677 6.82586 36.081 6.82586C39.3943 6.82586 41.4966 9.31224 41.4966 12.4258C41.4966 15.5394 39.3943 18.0258 36.081 18.0258Z" fill="#FF7D00"/>
    <path d="M90.9908 16.6594C89.0942 17.9362 87.0605 18.6754 84.7298 18.6754C81.645 18.6754 79.8169 17.2866 79.1086 14.8898H94.9211C95.0582 14.1954 95.1725 12.829 95.1725 11.6194C95.1268 6.62426 92.4304 0.329907 83.6787 0.329907C76.5036 0.329907 71.545 5.43707 71.545 12.4482C71.545 19.4818 76.2294 24.7009 84.4327 24.7009C88.1117 24.7009 91.3107 23.8273 93.8929 21.8561L90.9908 16.6594ZM83.7015 6.01946C86.1008 6.01946 87.8603 7.40825 88.066 9.96183H79.0629C79.6341 7.60985 81.1651 6.01946 83.7015 6.01946Z" fill="#FF7D00"/>
    <path d="M158.491 21.5873C157.669 21.5873 156.96 22.2145 156.96 23.0657C156.96 23.9169 157.646 24.5441 158.491 24.5441C159.314 24.5441 159.999 23.9169 159.999 23.0657C160.022 22.2369 159.314 21.5873 158.491 21.5873ZM158.491 24.3425C157.783 24.3425 157.235 23.8049 157.235 23.0657C157.235 22.3489 157.783 21.8113 158.491 21.8113C159.2 21.8113 159.725 22.3489 159.725 23.0657C159.748 23.8049 159.2 24.3425 158.491 24.3425Z" fill="#FF7D00"/>
    <path d="M159.223 22.7297C159.223 22.3489 158.971 22.2145 158.514 22.2145H157.852V23.9617H158.194V23.2225H158.423L158.857 23.9617H159.223L158.743 23.2001C159.017 23.1777 159.223 23.0433 159.223 22.7297ZM158.217 22.9537V22.4833H158.514C158.674 22.4833 158.88 22.5057 158.88 22.7073C158.88 22.9313 158.72 22.9537 158.537 22.9537H158.217Z" fill="#FF7D00"/>
    <path d="M2.05655 39.8879H3.65608V37.2448H6.35245V35.7664H3.65608V34.5568H6.69521V33.0784H2.05655V39.8879Z" fill="#FF7D00"/>
    <path d="M11.7452 33.0784H9.93998L7.63208 39.8655V39.8879H9.27731L9.73432 38.4095H11.928L12.385 39.8879V39.9103H14.0302L11.7452 33.0784ZM11.5167 36.9536H10.1913L10.854 34.848L11.5167 36.9536Z" fill="#FF7D00"/>
    <path d="M19.0573 37.2672L17.4807 33.1008V33.0784H15.5612V39.8879H17.0465V35.5648L18.3718 39.0591H19.7429L21.0682 35.5648V39.8879H22.5535V33.0784H20.634L19.0573 37.2672Z" fill="#FF7D00"/>
    <path d="M27.6263 32.9889C25.6154 32.9889 24.3358 34.3552 24.3358 36.4832C24.3358 38.6112 25.6383 39.9776 27.6263 39.9776C29.6143 39.9776 30.9168 38.6112 30.9168 36.4832C30.9168 34.3552 29.6143 32.9889 27.6263 32.9889ZM27.6263 34.4672C28.6546 34.4672 29.2487 35.2064 29.2487 36.4832C29.2487 37.76 28.6546 38.4992 27.6263 38.4992C26.598 38.4992 26.0039 37.76 26.0039 36.4832C25.9811 35.2064 26.5752 34.4672 27.6263 34.4672Z" fill="#FF7D00"/>
    <path d="M36.698 36.8416C36.698 37.9839 36.3095 38.4991 35.4183 38.4991C34.5043 38.4991 34.1387 38.0287 34.1387 36.8416V33.0784H32.5392V37.088C32.5392 38.0512 32.8134 38.7903 33.3389 39.2831C33.8188 39.7311 34.5272 39.9775 35.4183 39.9775C36.3095 39.9775 36.995 39.7535 37.4977 39.2831C38.0233 38.7903 38.2975 38.0512 38.2975 37.088V33.0784H36.698V36.8416Z" fill="#FF7D00"/>
    <path d="M43.1647 35.8112L42.4334 35.6096C41.9993 35.4976 41.8165 35.296 41.8165 34.9824C41.8165 34.6464 42.1364 34.4448 42.6162 34.4448C43.119 34.4448 43.5531 34.7808 43.7588 35.3408V35.3632L44.9013 34.512V34.4896C44.4671 33.5041 43.6674 32.9889 42.5934 32.9889C41.1538 32.9889 40.1941 33.7952 40.1941 35.0048C40.1941 36.08 40.7882 36.7744 42.0221 37.1104L42.6848 37.2896C43.2561 37.4464 43.4846 37.6256 43.4846 37.9392C43.4846 38.2752 43.1647 38.4992 42.6848 38.4992C42.1364 38.4992 41.6794 38.2528 41.2224 37.6928V37.6704L39.9656 38.6112H39.9427V38.6336C40.6511 39.5296 41.4966 39.9552 42.5934 39.9552C44.1015 39.9552 45.107 39.0816 45.107 37.8048C45.1527 36.8192 44.5357 36.2144 43.1647 35.8112Z" fill="#FF7D00"/>
    <path d="M51.208 33.0784H49.6085V39.8879H54.3386V38.3871H51.208V33.0784Z" fill="#FF7D00"/>
    <path d="M58.9087 32.9889C56.8978 32.9889 55.6182 34.3552 55.6182 36.4832C55.6182 38.6112 56.9207 39.9776 58.9087 39.9776C60.9195 39.9776 62.1992 38.6112 62.1992 36.4832C62.1992 34.3552 60.8967 32.9889 58.9087 32.9889ZM58.9087 38.4992C57.8804 38.4992 57.2863 37.76 57.2863 36.4832C57.2863 35.2064 57.8804 34.4672 58.9087 34.4672C59.937 34.4672 60.5311 35.2064 60.5311 36.4832C60.5311 37.76 59.937 38.4992 58.9087 38.4992Z" fill="#FF7D00"/>
    <path d="M68.2088 36.8416C68.2088 37.9839 67.8204 38.4991 66.9292 38.4991C66.0152 38.4991 65.6496 38.0287 65.6496 36.8416V33.0784H64.05V37.088C64.05 38.0512 64.3243 38.7903 64.8498 39.2831C65.3297 39.7311 66.038 39.9775 66.9292 39.9775C67.8204 39.9775 68.5059 39.7535 69.0086 39.2831C69.5342 38.7903 69.8084 38.0512 69.8084 37.088V33.0784H68.2088V36.8416Z" fill="#FF7D00"/>
    <path d="M73.5559 33.0784H71.9563V39.8655H73.5559V33.0784Z" fill="#FF7D00"/>
    <path d="M78.6059 35.8112L77.8746 35.6096C77.4405 35.4976 77.2577 35.296 77.2577 34.9824C77.2577 34.6464 77.5776 34.4448 78.0574 34.4448C78.5602 34.4448 78.9943 34.7808 79.2 35.3408V35.3632L80.3425 34.512V34.4896C79.9083 33.5041 79.1086 32.9889 78.0346 32.9889C76.595 32.9889 75.6353 33.7952 75.6353 35.0048C75.6353 36.08 76.2294 36.7744 77.4633 37.1104L78.126 37.2896C78.6972 37.4464 78.9258 37.6256 78.9258 37.9392C78.9258 38.2752 78.6058 38.4992 78.126 38.4992C77.5776 38.4992 77.1206 38.2528 76.6636 37.6928V37.6704L75.4068 38.6112H75.3839V38.6336C76.0923 39.5296 76.9378 39.9552 78.0346 39.9552C79.5427 39.9552 80.5481 39.0816 80.5481 37.8048C80.5938 36.8192 79.9769 36.2144 78.6059 35.8112Z" fill="#FF7D00"/>
    <path d="M84.1128 33.0784H82.5133V39.8655H84.1128V33.0784Z" fill="#FF7D00"/>
    <path d="M89.7798 33.0784H87.9746L85.6667 39.8655V39.8879H87.3119L87.7689 38.4095H89.9626L90.4196 39.8879V39.9103H92.0648L89.7798 33.0784ZM89.5284 36.9536H88.2031L88.8657 34.848L89.5284 36.9536Z" fill="#FF7D00"/>
    <path d="M97.8688 37.6256L95.4467 33.1008V33.0784H93.71V39.8879H95.241V35.632L97.6632 39.8655V39.8879H99.3998V33.0784H97.8688V37.6256Z" fill="#FF7D00"/>
    <path d="M105.135 33.0784H103.33L101.022 39.8655V39.8879H102.667L103.124 38.4095H105.318L105.775 39.8879V39.9103H107.42L105.135 33.0784ZM104.884 36.9536H103.581L104.244 34.848L104.884 36.9536Z" fill="#FF7D00"/>
    <path d="M115.372 37.3568C115.121 38.1632 114.71 38.4992 114.047 38.4992C113.087 38.4992 112.516 37.76 112.516 36.5056C112.516 35.8784 112.653 35.3632 112.95 35.0048C113.224 34.6688 113.59 34.4896 114.047 34.4896C114.733 34.4896 115.098 34.9152 115.19 35.7664V35.7888L116.698 35.4752H116.721V35.4528C116.561 33.8176 115.692 33.0113 114.07 33.0113C113.179 33.0113 112.356 33.3249 111.808 33.9296C111.191 34.5568 110.871 35.4528 110.871 36.5056C110.871 38.656 112.105 40 114.07 40C115.578 40 116.561 39.1936 116.926 37.6928V37.6704L115.372 37.3568Z" fill="#FF7D00"/>
    <path d="M122.662 35.632H120.262V33.0784H118.663V39.8879H120.262V37.1104H122.662V39.8879H124.261V33.0784H122.662V35.632Z" fill="#FF7D00"/>
    <path d="M128.054 33.0784H126.455V39.8655H128.054V33.0784Z" fill="#FF7D00"/>
    <path d="M134.43 37.3568C134.178 38.1632 133.767 38.4992 133.104 38.4992C132.145 38.4992 131.573 37.76 131.573 36.5056C131.573 35.8784 131.71 35.3632 132.008 35.0048C132.282 34.6688 132.647 34.4896 133.104 34.4896C133.79 34.4896 134.156 34.9152 134.247 35.7664V35.7888L135.755 35.4752H135.778V35.4528C135.618 33.8176 134.75 33.0113 133.127 33.0113C132.236 33.0113 131.413 33.3249 130.865 33.9296C130.248 34.5568 129.928 35.4528 129.928 36.5056C129.928 38.656 131.162 40 133.127 40C134.635 40 135.618 39.1936 135.984 37.6928V37.6704L134.43 37.3568Z" fill="#FF7D00"/>
    <path d="M143.113 33.1232L143.136 33.0784H141.216L139.16 35.5648V33.0784H137.56V39.8879H139.16V37.76L139.777 37.0432L141.308 39.8655V39.8879H143.181L140.874 35.744L143.113 33.1232Z" fill="#FF7D00"/>
    <path d="M146.381 37.1552H149.077V35.6768H146.381V34.5568H149.42V33.0784H144.781V39.8879H149.488V38.3871H146.381V37.1552Z" fill="#FF7D00"/>
    <path d="M155.429 37.6256L153.03 33.1008L153.007 33.0784H151.271V39.8879H152.824V35.632L155.247 39.8655V39.8879H156.983V33.0784H155.429V37.6256Z" fill="#FF7D00"/>
</svg>
